# xmcd CD database file
#
# Track frame offsets:
#	225
#	86096
#	107662
#	156472
#
# Disc length: 2945 seconds
#
# Revision: 0
# Processed by: cddbd v1.5.2PL0 Copyright (c) Steve Scherf et al.
# Submitted via: CDex 1.70beta3
#
DISCID=2d0b7e04
DTITLE=Kang Tae Hwan - Sorefa [CD2]
DYEAR=2011
DGENRE=Jazz
TTITLE0=Fly Away - part 1, 2, 3, 4
TTITLE1=K.S - part 1, 2
TTITLE2=Tidal Wave - part 1, 2
TTITLE3=Tears of Moses - part 1, 2, 3
EXTD=YEAR: 2011
EXTT0=
EXTT1=
EXTT2=
EXTT3=
PLAYORDER=
